<svg xmlns="http://www.w3.org/2000/svg" xmlns:xlink="http://www.w3.org/1999/xlink" width="100" zoomAndPan="magnify" viewBox="0 0 75 74.999997" height="100" preserveAspectRatio="xMidYMid meet" version="1.0"><defs><clipPath id="4e9acc0d65"><path d="M 4.78125 4.78125 L 68.53125 4.78125 L 68.53125 61.78125 L 4.78125 61.78125 Z M 4.78125 4.78125 " clip-rule="nonzero"/></clipPath></defs><g clip-path="url(#4e9acc0d65)"><path fill="#b00094" d="M 56.296875 23.703125 C 57.074219 23.144531 57.859375 22.605469 58.660156 22.078125 C 60.261719 25.609375 61.160156 29.523438 61.160156 33.644531 C 61.160156 49.160156 48.519531 61.78125 32.976562 61.78125 C 17.4375 61.78125 4.796875 49.160156 4.796875 33.644531 C 4.796875 18.132812 17.4375 5.511719 32.976562 5.511719 C 39.152344 5.511719 44.863281 7.507812 49.511719 10.878906 C 48.773438 11.503906 48.046875 12.140625 47.335938 12.792969 C 43.253906 9.980469 38.304688 8.328125 32.976562 8.328125 C 18.996094 8.328125 7.621094 19.683594 7.621094 33.644531 C 7.621094 47.605469 18.996094 58.960938 32.976562 58.960938 C 46.960938 58.960938 58.335938 47.605469 58.335938 33.644531 C 58.339844 30.121094 57.609375 26.757812 56.296875 23.703125 Z M 68.515625 13 C 52.238281 19.476562 38.453125 32.539062 31.574219 48.710938 C 27.53125 38.414062 20.304688 28.863281 10.046875 24.148438 C 18.875 27.253906 26.21875 33.898438 31.261719 41.671875 C 37.667969 26.027344 49.722656 12.859375 64.613281 4.78125 Z M 68.515625 13 " fill-opacity="1" fill-rule="nonzero"/><path fill="#b00094" d="M 56.296875 23.703125 C 57.074219 23.144531 57.859375 22.605469 58.660156 22.078125 C 60.261719 25.609375 61.160156 29.523438 61.160156 33.644531 C 61.160156 49.160156 48.519531 61.78125 32.976562 61.78125 C 17.4375 61.78125 4.796875 49.160156 4.796875 33.644531 C 4.796875 18.132812 17.4375 5.511719 32.976562 5.511719 C 39.152344 5.511719 44.863281 7.507812 49.511719 10.878906 C 48.773438 11.503906 48.046875 12.140625 47.335938 12.792969 C 43.253906 9.980469 38.304688 8.328125 32.976562 8.328125 C 18.996094 8.328125 7.621094 19.683594 7.621094 33.644531 C 7.621094 47.605469 18.996094 58.960938 32.976562 58.960938 C 46.960938 58.960938 58.335938 47.605469 58.335938 33.644531 C 58.339844 30.121094 57.609375 26.757812 56.296875 23.703125 Z M 68.515625 13 C 52.238281 19.476562 38.453125 32.539062 31.574219 48.710938 C 27.53125 38.414062 20.304688 28.863281 10.046875 24.148438 C 18.875 27.253906 26.21875 33.898438 31.261719 41.671875 C 37.667969 26.027344 49.722656 12.859375 64.613281 4.78125 Z M 68.515625 13 " fill-opacity="1" fill-rule="nonzero"/></g></svg>